<svg id="svg" xmlns="http://www.w3.org/2000/svg" xmlns:xlink="http://www.w3.org/1999/xlink" width="400" height="65.43046357615894" viewBox="0, 0, 400,65.43046357615894"><g id="svgg"><path id="path0" d="M30.667 0.101 C 30.254 0.137,29.204 0.290,28.333 0.442 C 27.462 0.593,26.637 0.714,26.500 0.709 C 26.363 0.705,25.726 0.852,25.084 1.036 C 24.443 1.221,23.768 1.393,23.584 1.420 C 23.401 1.447,22.613 1.705,21.833 1.994 C 21.054 2.284,20.267 2.567,20.083 2.624 C 19.491 2.807,15.585 4.857,15.528 5.014 C 15.497 5.098,15.384 5.167,15.276 5.167 C 15.168 5.167,14.883 5.350,14.641 5.573 C 14.400 5.797,14.169 5.947,14.128 5.906 C 14.087 5.865,13.917 5.982,13.751 6.166 C 13.585 6.350,13.347 6.500,13.224 6.500 C 13.101 6.500,13.000 6.558,13.000 6.629 C 13.000 6.700,12.531 7.113,11.958 7.547 C 10.822 8.406,8.626 10.597,7.578 11.917 C 7.214 12.375,6.842 12.804,6.750 12.869 C 6.658 12.934,6.583 13.052,6.583 13.131 C 6.583 13.209,6.455 13.402,6.298 13.560 C 6.140 13.717,5.880 14.068,5.720 14.339 C 5.559 14.611,5.369 14.833,5.297 14.833 C 5.225 14.833,5.167 14.983,5.167 15.167 C 5.167 15.350,5.107 15.500,5.033 15.500 C 4.960 15.500,4.731 15.819,4.525 16.208 C 3.318 18.486,2.684 19.776,2.676 19.967 C 2.671 20.086,2.548 20.414,2.402 20.695 C 2.256 20.977,2.106 21.377,2.069 21.585 C 2.031 21.793,1.852 22.290,1.670 22.690 C 1.489 23.090,1.339 23.576,1.337 23.771 C 1.335 23.965,1.220 24.445,1.082 24.836 C 0.944 25.228,0.797 25.822,0.755 26.158 C 0.712 26.493,0.551 27.476,0.395 28.342 C 0.002 30.534,0.008 34.876,0.408 37.000 C 0.572 37.871,0.728 38.826,0.756 39.123 C 0.783 39.420,0.929 40.036,1.081 40.492 C 1.232 40.948,1.384 41.545,1.419 41.818 C 1.454 42.091,1.598 42.540,1.741 42.816 C 1.883 43.091,2.000 43.431,2.000 43.571 C 2.000 43.710,2.162 44.183,2.360 44.621 C 2.558 45.058,2.870 45.754,3.053 46.167 C 3.236 46.579,3.444 47.029,3.515 47.167 C 4.529 49.130,4.931 49.833,5.038 49.833 C 5.109 49.833,5.167 49.934,5.167 50.058 C 5.167 50.181,5.317 50.455,5.500 50.667 C 5.683 50.878,5.833 51.100,5.833 51.161 C 5.833 51.221,6.002 51.452,6.208 51.673 C 6.415 51.894,6.583 52.120,6.583 52.175 C 6.583 52.229,6.696 52.393,6.833 52.539 C 6.971 52.684,7.343 53.129,7.661 53.527 C 8.761 54.902,12.347 58.333,12.685 58.333 C 12.758 58.333,12.877 58.429,12.950 58.546 C 13.085 58.761,14.045 59.425,14.128 59.361 C 14.153 59.342,14.377 59.515,14.627 59.746 C 14.876 59.978,15.168 60.167,15.276 60.167 C 15.384 60.167,15.497 60.225,15.528 60.296 C 15.608 60.483,18.624 62.167,18.878 62.167 C 18.996 62.167,19.259 62.283,19.463 62.426 C 19.667 62.569,19.965 62.716,20.125 62.754 C 20.286 62.791,21.054 63.056,21.833 63.343 C 22.613 63.630,23.416 63.888,23.619 63.917 C 23.822 63.946,24.353 64.091,24.799 64.239 C 25.245 64.387,25.904 64.545,26.263 64.591 C 26.623 64.636,27.592 64.795,28.417 64.945 C 30.494 65.321,34.902 65.320,36.982 64.943 C 37.842 64.787,38.801 64.626,39.111 64.586 C 40.003 64.472,43.541 63.446,44.500 63.023 C 44.821 62.882,45.158 62.760,45.250 62.752 C 45.886 62.698,50.077 60.390,50.958 59.608 C 51.165 59.425,51.334 59.345,51.336 59.429 C 51.337 59.514,51.394 59.508,51.461 59.416 C 51.528 59.325,52.127 58.841,52.792 58.342 C 53.456 57.843,54.000 57.372,54.000 57.295 C 54.000 57.219,54.131 57.106,54.292 57.044 C 54.646 56.908,58.000 53.520,58.000 53.297 C 58.000 53.196,58.477 52.594,59.042 51.983 C 59.202 51.809,59.315 51.632,59.292 51.589 C 59.269 51.546,59.369 51.372,59.515 51.201 C 59.661 51.031,59.921 50.654,60.093 50.363 C 60.264 50.072,60.464 49.833,60.536 49.833 C 60.608 49.833,60.667 49.683,60.667 49.500 C 60.667 49.317,60.730 49.167,60.808 49.167 C 60.886 49.167,61.074 48.885,61.225 48.542 C 61.377 48.198,61.614 47.729,61.753 47.500 C 62.125 46.882,63.070 44.788,63.106 44.500 C 63.123 44.362,63.287 43.875,63.470 43.417 C 63.878 42.396,64.362 40.747,64.439 40.116 C 64.470 39.859,64.616 39.184,64.764 38.616 C 65.658 35.178,65.363 28.250,64.146 24.125 C 63.964 23.507,63.787 22.869,63.753 22.709 C 63.657 22.250,63.147 20.816,62.818 20.083 C 62.654 19.717,62.325 18.977,62.087 18.441 C 61.850 17.904,61.545 17.355,61.411 17.220 C 61.277 17.086,61.167 16.878,61.167 16.759 C 61.167 16.639,61.054 16.447,60.917 16.333 C 60.779 16.219,60.667 15.985,60.667 15.813 C 60.667 15.641,60.608 15.500,60.536 15.500 C 60.464 15.500,60.262 15.256,60.086 14.958 C 59.910 14.660,59.634 14.274,59.472 14.100 C 59.311 13.925,59.218 13.719,59.266 13.641 C 59.314 13.564,59.284 13.500,59.199 13.500 C 59.114 13.500,58.841 13.193,58.593 12.818 C 57.866 11.720,54.695 8.380,54.455 8.460 C 54.383 8.484,54.283 8.396,54.233 8.265 C 54.182 8.134,53.566 7.591,52.862 7.057 C 52.159 6.524,51.528 6.012,51.461 5.919 C 51.394 5.826,51.337 5.819,51.336 5.904 C 51.334 5.989,51.165 5.904,50.958 5.716 C 50.582 5.373,48.201 3.917,48.016 3.916 C 47.961 3.916,47.680 3.748,47.391 3.541 C 47.102 3.335,46.786 3.167,46.688 3.167 C 46.591 3.167,46.265 3.060,45.964 2.931 C 45.663 2.801,45.154 2.582,44.833 2.445 C 43.432 1.844,40.075 0.849,39.083 0.740 C 38.808 0.710,37.908 0.566,37.083 0.420 C 35.572 0.154,32.056 -0.022,30.667 0.101 M36.131 7.775 L 37.012 7.881 36.423 8.301 C 36.099 8.531,35.833 8.783,35.833 8.860 C 35.833 8.937,35.744 9.000,35.636 9.000 C 35.453 9.000,33.167 11.228,33.167 11.406 C 33.167 11.449,32.998 11.661,32.792 11.876 C 32.241 12.450,31.667 13.218,31.667 13.381 C 31.667 13.460,31.553 13.637,31.415 13.775 C 31.277 13.914,31.206 14.096,31.258 14.180 C 31.310 14.264,31.283 14.333,31.198 14.333 C 31.037 14.333,29.850 16.647,29.753 17.150 C 29.723 17.306,29.574 17.731,29.421 18.092 C 29.269 18.454,29.113 18.992,29.074 19.288 C 29.035 19.584,28.917 20.184,28.813 20.622 C 28.508 21.900,28.485 26.059,28.776 27.417 C 28.913 28.058,29.046 28.741,29.071 28.934 C 29.216 30.068,30.879 34.000,31.215 34.000 C 31.291 34.000,31.310 34.069,31.258 34.153 C 31.206 34.238,31.260 34.406,31.377 34.528 C 31.494 34.650,31.836 35.137,32.136 35.610 C 32.437 36.083,32.792 36.512,32.926 36.564 C 33.060 36.615,33.150 36.717,33.127 36.790 C 33.103 36.862,33.608 37.431,34.250 38.054 C 35.780 39.538,35.924 39.667,36.056 39.667 C 36.117 39.667,36.310 39.798,36.484 39.958 C 36.868 40.311,37.718 40.914,37.833 40.916 C 37.879 40.917,38.142 41.074,38.417 41.266 C 38.692 41.457,39.160 41.719,39.458 41.848 C 39.756 41.976,40.000 42.133,40.000 42.197 C 40.000 42.261,40.131 42.313,40.292 42.314 C 40.452 42.315,41.258 42.549,42.083 42.834 C 42.908 43.119,43.921 43.391,44.333 43.438 C 44.746 43.486,45.383 43.592,45.750 43.675 C 46.726 43.895,49.744 43.855,51.040 43.604 C 51.658 43.484,52.195 43.417,52.233 43.455 C 52.317 43.540,54.889 42.738,55.385 42.472 C 55.582 42.367,55.988 42.226,56.289 42.158 L 56.835 42.035 56.521 42.642 C 56.349 42.977,56.124 43.438,56.022 43.667 C 55.919 43.896,55.760 44.215,55.668 44.375 C 55.354 44.920,55.176 45.249,54.902 45.792 C 54.752 46.090,54.558 46.333,54.471 46.333 C 54.385 46.333,54.360 46.408,54.417 46.500 C 54.473 46.592,54.456 46.667,54.379 46.667 C 54.302 46.667,54.104 46.894,53.941 47.171 C 53.777 47.448,53.465 47.880,53.248 48.129 C 53.031 48.379,52.643 48.837,52.385 49.146 C 51.415 50.312,49.752 51.871,49.292 52.045 C 49.131 52.106,49.000 52.234,49.000 52.328 C 49.000 52.423,48.887 52.500,48.750 52.500 C 48.612 52.500,48.500 52.557,48.500 52.627 C 48.500 52.697,48.200 52.940,47.833 53.167 C 47.467 53.393,47.167 53.636,47.167 53.706 C 47.167 53.776,47.080 53.833,46.974 53.833 C 46.868 53.833,46.531 54.025,46.224 54.258 C 45.917 54.492,45.667 54.637,45.667 54.580 C 45.667 54.524,45.439 54.639,45.161 54.838 C 44.882 55.036,44.564 55.216,44.452 55.237 C 44.341 55.259,43.987 55.394,43.667 55.538 C 42.516 56.054,41.743 56.344,41.314 56.421 C 41.074 56.464,40.586 56.621,40.231 56.771 C 39.875 56.921,39.377 57.039,39.125 57.033 C 38.873 57.027,38.667 57.097,38.667 57.188 C 38.667 57.279,38.605 57.315,38.530 57.269 C 38.455 57.222,37.799 57.290,37.072 57.420 C 35.246 57.745,31.707 57.732,29.977 57.395 C 29.210 57.245,28.390 57.108,28.154 57.090 C 27.540 57.043,24.931 56.167,23.500 55.527 C 23.179 55.384,22.842 55.253,22.750 55.237 C 22.526 55.197,20.777 54.121,20.648 53.945 C 20.592 53.868,20.501 53.830,20.445 53.861 C 20.390 53.892,20.198 53.792,20.019 53.639 C 19.841 53.486,19.651 53.405,19.597 53.458 C 19.544 53.512,19.500 53.468,19.500 53.361 C 19.500 53.254,19.404 53.167,19.287 53.167 C 19.170 53.167,18.965 53.017,18.833 52.833 C 18.701 52.650,18.495 52.500,18.375 52.500 C 18.255 52.500,18.113 52.387,18.060 52.250 C 18.008 52.113,17.878 52.000,17.773 52.000 C 17.667 52.000,17.343 51.756,17.053 51.458 C 16.763 51.160,16.258 50.692,15.933 50.417 C 15.607 50.142,15.339 49.833,15.337 49.732 C 15.335 49.630,15.144 49.405,14.912 49.232 C 14.681 49.058,14.178 48.467,13.794 47.917 C 13.411 47.367,13.038 46.892,12.965 46.861 C 12.893 46.831,12.833 46.717,12.833 46.609 C 12.833 46.502,12.665 46.224,12.458 45.992 C 12.252 45.761,12.059 45.462,12.028 45.329 C 11.998 45.196,11.917 45.048,11.847 45.002 C 11.684 44.892,10.333 42.062,10.333 41.830 C 10.333 41.733,10.182 41.357,9.997 40.994 C 9.812 40.631,9.634 40.128,9.602 39.875 C 9.570 39.623,9.419 38.996,9.267 38.481 C 9.114 37.966,8.964 37.291,8.933 36.981 C 8.902 36.671,8.783 35.573,8.668 34.542 C 8.502 33.042,8.502 32.292,8.668 30.792 C 8.783 29.760,8.905 28.617,8.940 28.250 C 8.975 27.883,9.128 27.208,9.279 26.750 C 9.431 26.292,9.572 25.762,9.593 25.573 C 9.613 25.384,9.796 24.821,9.999 24.323 C 10.202 23.825,10.427 23.267,10.499 23.083 C 10.803 22.315,11.582 20.732,11.770 20.500 C 11.882 20.362,11.998 20.140,12.029 20.006 C 12.059 19.872,12.252 19.573,12.458 19.341 C 12.665 19.110,12.833 18.826,12.833 18.710 C 12.833 18.595,12.892 18.500,12.964 18.500 C 13.036 18.500,13.218 18.294,13.370 18.042 C 13.784 17.349,14.189 16.842,14.833 16.207 C 15.154 15.891,15.417 15.575,15.417 15.504 C 15.417 15.434,15.675 15.160,15.991 14.897 C 16.307 14.633,16.769 14.210,17.016 13.958 C 17.264 13.706,17.547 13.500,17.644 13.500 C 17.742 13.500,17.902 13.350,18.000 13.167 C 18.098 12.983,18.288 12.833,18.423 12.833 C 18.557 12.833,18.667 12.775,18.667 12.703 C 18.667 12.631,18.873 12.450,19.125 12.301 C 19.377 12.151,19.762 11.874,19.980 11.685 C 20.198 11.495,20.435 11.377,20.507 11.421 C 20.579 11.466,20.663 11.445,20.694 11.376 C 20.760 11.227,22.508 10.140,22.750 10.097 C 22.842 10.081,23.090 9.972,23.302 9.855 C 23.515 9.739,23.831 9.616,24.005 9.582 C 24.179 9.549,24.567 9.415,24.869 9.285 C 25.845 8.863,27.689 8.285,28.226 8.233 C 28.514 8.204,29.275 8.073,29.917 7.940 C 31.139 7.687,34.624 7.594,36.131 7.775 M198.167 22.250 L 198.167 33.333 201.491 33.333 L 204.815 33.333 204.879 28.458 C 204.951 23.040,204.941 23.135,205.521 22.598 C 206.497 21.692,207.577 21.569,208.508 22.256 C 209.570 23.040,209.578 23.083,209.634 28.458 L 209.685 33.333 213.023 33.333 L 216.360 33.333 216.286 27.625 C 216.203 21.154,216.197 21.083,215.603 19.833 C 214.328 17.151,211.307 15.730,208.583 16.531 C 208.217 16.639,207.863 16.714,207.796 16.699 C 207.392 16.602,205.385 18.072,205.110 18.667 C 204.956 18.999,204.908 18.280,204.872 15.125 L 204.827 11.167 201.497 11.167 L 198.167 11.167 198.167 22.250 M393.000 22.250 L 393.000 33.333 396.500 33.333 L 400.000 33.333 400.000 22.250 L 400.000 11.167 396.500 11.167 L 393.000 11.167 393.000 22.250 M89.707 12.263 C 89.760 12.316,89.624 12.766,89.404 13.263 C 89.184 13.760,89.042 14.167,89.089 14.167 C 89.135 14.167,89.022 14.464,88.837 14.827 C 88.652 15.190,88.500 15.588,88.500 15.712 C 88.500 15.836,88.350 16.248,88.167 16.627 C 87.983 17.007,87.833 17.387,87.833 17.472 C 87.833 17.556,87.705 17.916,87.549 18.271 C 87.393 18.626,87.250 19.029,87.231 19.167 C 87.199 19.400,86.788 20.474,86.212 21.833 C 86.075 22.154,85.932 22.595,85.892 22.812 C 85.852 23.029,85.673 23.495,85.493 23.847 C 85.314 24.199,85.167 24.568,85.167 24.668 C 85.167 24.768,85.017 25.159,84.834 25.537 C 84.652 25.915,84.536 26.258,84.577 26.299 C 84.618 26.340,84.467 26.738,84.241 27.184 C 84.016 27.629,83.846 28.051,83.863 28.122 C 83.881 28.192,83.769 28.540,83.614 28.895 C 83.460 29.250,83.333 29.597,83.333 29.667 C 83.333 29.736,83.204 30.083,83.047 30.438 C 82.889 30.793,82.757 31.159,82.752 31.251 C 82.747 31.343,82.622 31.680,82.474 32.001 C 82.325 32.321,82.152 32.754,82.090 32.962 L 81.975 33.340 85.524 33.295 L 89.073 33.250 89.579 31.750 L 90.085 30.250 93.695 30.205 L 97.305 30.160 97.478 30.872 C 97.574 31.263,97.786 31.976,97.951 32.456 L 98.250 33.329 101.803 33.331 L 105.356 33.333 105.253 32.958 C 105.196 32.752,105.014 32.246,104.847 31.833 C 104.681 31.421,104.452 30.821,104.339 30.500 C 103.522 28.195,102.955 26.674,102.745 26.225 C 102.610 25.936,102.500 25.547,102.500 25.360 C 102.500 25.173,102.427 24.975,102.338 24.919 C 102.249 24.864,102.097 24.529,102.002 24.174 C 101.906 23.819,101.703 23.240,101.551 22.889 C 101.399 22.538,101.256 22.150,101.233 22.029 C 101.211 21.907,101.063 21.535,100.905 21.202 C 100.747 20.869,100.604 20.481,100.588 20.340 C 100.572 20.199,100.433 19.804,100.279 19.464 C 100.126 19.123,100.000 18.766,100.000 18.670 C 100.000 18.575,99.862 18.178,99.694 17.790 C 99.526 17.401,99.294 16.821,99.178 16.500 C 99.062 16.179,98.783 15.429,98.558 14.833 C 98.333 14.237,98.070 13.487,97.974 13.167 C 97.664 12.135,97.804 12.167,93.535 12.167 C 91.377 12.167,89.654 12.210,89.707 12.263 M266.792 12.263 C 266.723 12.332,266.667 17.101,266.667 22.861 L 266.667 33.333 270.083 33.333 L 273.500 33.333 273.500 30.000 L 273.500 26.667 275.292 26.664 C 276.277 26.663,277.499 26.564,278.007 26.444 C 278.515 26.325,279.021 26.257,279.132 26.294 C 279.243 26.331,279.333 26.292,279.333 26.208 C 279.333 26.124,279.427 26.055,279.542 26.055 C 280.111 26.053,281.726 25.111,282.312 24.440 C 282.540 24.178,282.807 23.876,282.905 23.770 C 284.022 22.561,284.574 19.711,284.072 17.750 C 283.932 17.200,283.810 16.637,283.801 16.500 C 283.792 16.362,283.627 16.025,283.435 15.750 C 283.242 15.475,283.084 15.213,283.084 15.167 C 283.083 15.007,281.582 13.584,281.458 13.625 C 281.390 13.648,281.333 13.609,281.333 13.538 C 281.333 13.384,280.557 12.996,279.417 12.581 C 278.534 12.260,267.082 11.972,266.792 12.263 M344.532 14.417 L 344.583 16.501 343.542 16.500 L 342.500 16.500 342.500 19.250 L 342.500 22.000 343.542 22.000 L 344.583 22.000 344.533 24.692 C 344.506 26.172,344.537 27.504,344.602 27.650 C 344.666 27.797,344.704 27.983,344.686 28.063 C 344.619 28.353,345.359 30.480,345.594 30.675 C 345.725 30.785,345.833 30.977,345.833 31.104 C 345.833 31.230,345.890 31.334,345.958 31.335 C 346.027 31.336,346.367 31.605,346.714 31.934 C 347.060 32.262,347.435 32.550,347.547 32.573 C 347.659 32.596,347.947 32.697,348.188 32.796 C 349.124 33.182,349.996 33.302,352.042 33.328 L 354.167 33.354 354.167 30.496 L 354.167 27.637 353.166 27.694 C 352.616 27.725,352.166 27.690,352.166 27.618 C 352.167 27.545,352.037 27.507,351.879 27.534 C 351.720 27.561,351.589 27.496,351.587 27.389 C 351.585 27.282,351.527 27.138,351.458 27.069 C 351.390 27.001,351.333 25.832,351.333 24.472 L 351.333 22.000 352.750 22.000 L 354.167 22.000 354.167 19.250 L 354.167 16.500 352.750 16.500 L 351.333 16.500 351.333 14.417 L 351.333 12.333 347.907 12.333 L 344.481 12.333 344.532 14.417 M179.000 16.296 C 178.679 16.322,178.042 16.421,177.583 16.517 C 177.125 16.614,176.599 16.722,176.414 16.759 C 175.912 16.859,174.377 17.627,174.016 17.959 C 172.945 18.946,172.333 19.576,172.333 19.694 C 172.333 19.769,172.212 19.972,172.063 20.146 C 171.457 20.852,170.920 23.102,170.943 24.833 C 170.965 26.579,171.077 27.344,171.425 28.125 C 171.640 28.606,171.777 29.000,171.731 29.000 C 171.685 29.000,171.781 29.225,171.943 29.500 C 172.106 29.775,172.302 30.000,172.379 30.000 C 172.456 30.000,172.476 30.071,172.422 30.158 C 172.368 30.245,172.476 30.398,172.662 30.498 C 172.848 30.597,173.000 30.786,173.000 30.917 C 173.000 31.048,173.169 31.245,173.375 31.355 C 173.581 31.465,173.825 31.651,173.917 31.768 C 175.213 33.430,180.814 34.007,183.506 32.757 C 184.775 32.168,186.500 30.758,186.500 30.311 C 186.500 30.232,186.567 30.167,186.648 30.167 C 186.856 30.167,187.488 28.780,187.844 27.542 L 188.143 26.500 184.505 26.500 L 180.866 26.500 180.691 27.001 C 180.388 27.872,179.319 28.080,178.537 27.422 C 177.915 26.898,177.557 25.417,177.764 24.219 C 177.841 23.778,177.896 23.323,177.887 23.209 C 177.861 22.874,178.975 22.000,179.429 22.000 C 179.964 22.000,180.833 22.639,180.833 23.031 C 180.833 23.314,181.071 23.333,184.488 23.333 L 188.143 23.333 188.006 22.875 C 187.931 22.623,187.791 22.218,187.695 21.975 C 187.600 21.733,187.562 21.493,187.612 21.443 C 187.662 21.393,187.540 21.123,187.340 20.843 C 187.141 20.563,187.022 20.333,187.076 20.333 C 187.308 20.333,185.775 18.597,185.007 17.990 C 184.545 17.624,184.167 17.368,184.167 17.420 C 184.167 17.472,183.848 17.332,183.458 17.109 C 182.575 16.604,180.315 16.192,179.000 16.296 M234.333 16.296 C 234.012 16.322,233.375 16.421,232.917 16.517 C 232.458 16.614,231.925 16.724,231.732 16.762 C 231.152 16.876,229.892 17.478,229.668 17.748 C 229.553 17.887,229.375 18.005,229.271 18.012 C 229.168 18.019,228.783 18.392,228.417 18.843 C 228.050 19.293,227.649 19.777,227.526 19.917 C 227.403 20.058,227.287 20.266,227.267 20.378 C 227.248 20.491,227.108 20.817,226.957 21.103 C 226.657 21.668,226.582 21.984,226.327 23.762 C 226.041 25.752,226.966 30.000,227.686 30.000 C 227.767 30.000,227.834 30.094,227.834 30.208 C 227.835 30.549,229.321 32.000,229.669 32.000 C 229.759 32.000,229.833 32.062,229.833 32.139 C 229.833 32.789,233.306 33.577,235.560 33.438 C 236.398 33.386,237.221 33.337,237.388 33.329 C 237.749 33.312,239.725 32.339,239.806 32.138 C 239.836 32.062,239.956 32.000,240.073 32.000 C 240.324 32.000,241.934 30.473,241.875 30.292 C 241.852 30.223,241.898 30.167,241.977 30.167 C 242.203 30.167,243.167 28.091,243.167 27.605 L 243.167 27.167 239.675 27.167 C 237.064 27.167,236.150 27.219,236.050 27.375 C 235.194 28.712,233.282 28.396,232.836 26.844 C 232.635 26.141,232.433 26.167,238.175 26.167 L 243.461 26.167 243.562 25.792 C 243.742 25.117,243.672 23.756,243.403 22.743 C 243.259 22.197,243.111 21.609,243.076 21.438 C 243.040 21.266,242.896 20.950,242.756 20.735 C 242.615 20.521,242.500 20.230,242.500 20.089 C 242.500 19.948,242.444 19.833,242.375 19.832 C 242.306 19.832,242.074 19.573,241.859 19.257 C 241.502 18.733,239.667 17.194,239.667 17.418 C 239.667 17.471,239.326 17.314,238.909 17.070 C 238.492 16.826,238.110 16.668,238.059 16.719 C 238.008 16.770,237.767 16.736,237.525 16.643 C 236.983 16.435,235.126 16.233,234.333 16.296 M124.250 16.565 C 123.365 16.815,122.254 17.581,121.840 18.228 L 121.506 18.750 121.503 17.625 L 121.500 16.500 118.167 16.500 L 114.833 16.500 114.833 29.000 L 114.833 41.500 118.167 41.500 L 121.500 41.500 121.500 36.294 L 121.500 31.088 121.875 31.615 C 122.281 32.187,123.622 33.137,124.215 33.273 C 125.826 33.643,128.310 33.445,129.154 32.880 C 129.390 32.721,129.637 32.590,129.703 32.588 C 129.859 32.582,131.500 31.056,131.500 30.917 C 131.500 30.858,131.594 30.705,131.708 30.577 C 131.823 30.449,131.992 30.249,132.083 30.131 C 132.257 29.908,132.638 28.899,132.744 28.382 C 132.778 28.218,132.894 27.708,133.001 27.250 C 133.263 26.135,133.271 23.807,133.017 22.627 C 132.903 22.102,132.807 21.614,132.803 21.544 C 132.781 21.172,132.094 19.699,131.792 19.375 C 131.599 19.169,131.484 19.000,131.536 19.000 C 131.648 19.000,130.121 17.425,130.000 17.415 C 129.954 17.411,129.720 17.276,129.479 17.115 C 129.238 16.954,128.901 16.791,128.729 16.754 C 128.557 16.716,128.155 16.606,127.834 16.509 C 127.100 16.287,125.125 16.318,124.250 16.565 M147.631 16.569 C 147.291 16.690,146.978 16.756,146.937 16.715 C 146.850 16.628,145.974 17.162,145.794 17.413 C 145.727 17.507,145.671 17.520,145.669 17.443 C 145.663 17.105,143.333 19.794,143.333 20.139 C 143.333 20.222,143.192 20.619,143.019 21.020 C 142.846 21.422,142.618 22.462,142.513 23.333 C 142.330 24.856,142.343 25.117,142.749 27.917 C 142.826 28.449,143.397 29.896,143.625 30.137 C 143.740 30.258,143.833 30.426,143.833 30.511 C 143.833 30.809,145.450 32.312,146.251 32.759 C 148.596 34.069,152.521 33.511,153.756 31.694 L 154.167 31.089 154.167 32.211 L 154.167 33.333 157.500 33.333 L 160.833 33.333 160.833 24.917 L 160.833 16.500 157.500 16.500 L 154.167 16.500 154.167 17.540 L 154.167 18.580 153.625 17.984 C 152.290 16.516,149.575 15.875,147.631 16.569 M300.127 16.568 C 299.692 16.685,299.308 16.752,299.272 16.717 C 299.143 16.587,297.363 17.503,296.548 18.118 C 295.260 19.090,294.482 20.144,293.927 21.667 C 293.457 22.959,293.450 27.074,293.917 28.083 C 294.087 28.450,294.243 28.844,294.265 28.958 C 294.338 29.349,295.850 31.333,296.074 31.333 C 296.197 31.333,296.341 31.446,296.394 31.584 C 296.447 31.721,296.755 31.960,297.078 32.114 C 297.402 32.269,297.667 32.459,297.667 32.538 C 297.667 32.617,297.760 32.664,297.875 32.643 C 297.990 32.622,298.421 32.758,298.833 32.946 C 300.921 33.899,306.518 33.433,307.523 32.223 C 307.624 32.100,307.792 31.996,307.895 31.992 C 307.999 31.987,308.383 31.688,308.750 31.326 C 309.117 30.965,309.473 30.669,309.542 30.668 C 309.610 30.667,309.667 30.554,309.667 30.417 C 309.667 30.279,309.737 30.167,309.823 30.167 C 310.788 30.167,311.805 25.024,311.240 23.000 C 311.099 22.496,310.962 21.933,310.935 21.750 C 310.884 21.404,310.201 19.980,310.017 19.833 C 309.959 19.787,309.700 19.494,309.443 19.180 C 308.634 18.197,306.069 16.561,305.548 16.697 C 305.476 16.715,305.019 16.641,304.533 16.532 C 303.399 16.277,301.141 16.296,300.127 16.568 M332.247 16.575 C 331.160 16.842,330.119 17.499,329.083 18.573 L 328.250 19.437 328.303 17.968 L 328.357 16.500 324.845 16.500 L 321.333 16.500 321.333 24.917 L 321.333 33.333 324.833 33.333 L 328.333 33.333 328.333 29.167 L 328.333 25.000 329.000 24.333 C 329.367 23.967,329.798 23.659,329.958 23.649 C 330.119 23.639,330.362 23.615,330.500 23.594 C 330.637 23.574,331.444 23.544,332.292 23.529 L 333.833 23.500 333.833 19.917 L 333.833 16.333 333.458 16.352 C 333.252 16.362,332.707 16.462,332.247 16.575 M368.958 16.571 C 368.615 16.694,368.333 16.758,368.333 16.715 C 368.333 15.880,364.575 19.664,364.528 20.546 C 364.524 20.617,364.373 21.070,364.193 21.552 C 363.829 22.525,363.687 27.500,364.023 27.500 C 364.113 27.500,364.146 27.565,364.098 27.644 C 363.766 28.181,365.402 31.136,366.522 32.021 C 368.200 33.349,371.615 33.949,373.167 33.190 C 374.322 32.624,374.777 32.263,375.193 31.583 L 375.499 31.083 375.499 32.208 L 375.500 33.333 378.833 33.333 L 382.167 33.333 382.167 24.917 L 382.167 16.500 378.833 16.500 L 375.500 16.500 375.500 17.516 L 375.500 18.532 374.969 17.933 C 374.677 17.603,374.340 17.333,374.219 17.333 C 374.099 17.333,374.000 17.265,374.000 17.182 C 374.000 16.559,370.261 16.106,368.958 16.571 M276.227 17.730 C 278.570 18.709,277.729 21.172,275.008 21.302 L 273.500 21.374 273.500 19.437 L 273.500 17.500 274.589 17.500 C 275.187 17.500,275.925 17.603,276.227 17.730 M93.792 19.458 C 93.743 19.609,94.090 20.777,94.524 21.921 C 94.699 22.382,94.878 22.959,94.922 23.202 C 94.966 23.446,95.149 23.987,95.329 24.406 L 95.655 25.167 93.744 25.167 C 91.793 25.167,91.668 25.120,91.992 24.515 C 92.079 24.352,92.190 24.000,92.237 23.734 C 92.285 23.468,92.427 22.988,92.553 22.667 C 92.956 21.642,93.355 20.428,93.413 20.051 C 93.471 19.670,93.634 19.333,93.760 19.333 C 93.800 19.333,93.815 19.390,93.792 19.458 M40.179 22.626 C 40.260 22.833,40.385 22.986,40.455 22.967 C 40.526 22.948,40.865 23.038,41.208 23.166 C 42.027 23.473,42.045 23.695,41.248 23.663 C 41.201 23.661,40.944 23.773,40.677 23.911 C 40.184 24.166,40.120 24.285,39.906 25.333 L 39.787 25.917 39.547 25.083 C 39.218 23.942,38.971 23.724,37.958 23.679 C 37.398 23.655,37.673 23.392,38.491 23.169 C 38.944 23.046,39.307 22.901,39.298 22.847 C 39.289 22.794,39.387 22.383,39.515 21.935 L 39.748 21.120 39.889 21.685 C 39.967 21.996,40.097 22.419,40.179 22.626 M235.664 21.686 C 236.282 21.871,236.833 22.522,236.833 23.067 C 236.833 23.296,236.553 23.333,234.833 23.333 C 232.669 23.333,232.512 23.255,233.167 22.500 C 233.350 22.289,233.500 22.063,233.500 21.999 C 233.500 21.878,234.403 21.547,234.814 21.517 C 234.941 21.508,235.323 21.584,235.664 21.686 M303.108 22.244 C 303.299 22.378,303.498 22.446,303.549 22.395 C 303.850 22.094,304.533 23.700,304.560 24.774 C 304.635 27.721,301.442 28.957,300.497 26.346 C 299.651 24.011,301.495 21.115,303.108 22.244 M124.986 22.345 C 127.458 23.091,126.598 27.627,123.985 27.627 C 122.005 27.627,120.901 25.571,121.813 23.583 C 122.092 22.977,122.833 22.116,122.833 22.399 C 122.833 22.464,122.965 22.437,123.125 22.339 C 123.395 22.175,124.433 22.179,124.986 22.345 M152.655 22.345 C 154.346 22.851,154.655 25.838,153.154 27.178 C 151.201 28.921,148.293 26.185,149.449 23.692 C 149.694 23.164,150.500 22.198,150.500 22.433 C 150.500 22.479,150.631 22.437,150.792 22.339 C 151.061 22.175,152.097 22.178,152.655 22.345 M374.133 22.357 C 375.510 22.562,375.916 27.114,374.562 27.160 C 374.459 27.164,374.281 27.278,374.168 27.415 C 374.055 27.551,373.896 27.622,373.814 27.572 C 373.733 27.521,373.667 27.564,373.667 27.667 C 373.667 27.769,373.605 27.815,373.530 27.768 C 373.454 27.722,373.082 27.665,372.701 27.643 C 371.242 27.557,370.220 25.764,370.692 24.119 C 370.803 23.733,370.899 23.357,370.905 23.284 C 370.911 23.211,371.254 22.925,371.667 22.647 C 372.422 22.138,372.562 22.122,374.133 22.357 M51.727 26.753 C 51.904 28.175,52.736 29.364,53.589 29.413 C 54.392 29.459,55.826 30.159,55.158 30.179 C 54.448 30.201,53.935 30.334,53.308 30.661 C 52.973 30.835,52.661 30.939,52.614 30.892 C 52.405 30.682,51.714 32.639,51.678 33.542 C 51.654 34.154,51.378 33.794,51.165 32.875 C 50.727 30.975,49.825 30.256,47.782 30.178 C 47.015 30.149,48.023 29.715,49.577 29.404 C 50.030 29.314,50.823 28.488,50.914 28.011 C 50.980 27.671,51.165 27.019,51.433 26.184 C 51.545 25.838,51.635 26.013,51.727 26.753 M175.725 46.593 C 175.522 46.797,175.305 47.234,175.242 47.565 C 175.144 48.091,175.069 48.167,174.648 48.167 C 174.331 48.167,174.167 48.252,174.167 48.417 C 174.167 48.583,174.333 48.667,174.667 48.667 L 175.167 48.667 175.167 51.333 C 175.167 53.572,175.206 54.000,175.412 54.000 C 175.617 54.000,175.666 53.556,175.704 51.375 L 175.750 48.750 176.625 48.700 C 177.895 48.627,177.863 48.167,176.589 48.167 C 175.611 48.167,175.597 48.142,176.036 47.222 C 176.215 46.847,176.706 46.611,177.208 46.660 C 177.373 46.675,177.500 46.575,177.500 46.428 C 177.500 46.011,176.185 46.133,175.725 46.593 M276.548 46.391 C 276.403 46.625,276.920 47.020,277.220 46.905 C 277.688 46.726,277.569 46.198,277.068 46.226 C 276.830 46.239,276.596 46.313,276.548 46.391 M129.333 50.167 C 129.333 53.889,129.343 54.000,129.667 54.000 C 129.980 54.000,130.000 53.889,130.000 52.175 C 130.000 49.988,130.501 48.728,131.401 48.651 C 133.630 48.460,134.167 49.140,134.167 52.150 C 134.167 53.683,134.209 54.000,134.417 54.000 C 134.805 54.000,134.777 50.190,134.382 49.450 C 134.226 49.157,134.120 48.842,134.146 48.750 C 134.173 48.658,134.140 48.637,134.074 48.703 C 134.008 48.769,133.737 48.669,133.471 48.480 C 133.206 48.290,132.881 48.177,132.749 48.227 C 132.618 48.278,132.464 48.243,132.407 48.151 C 132.338 48.040,132.234 48.042,132.095 48.157 C 131.980 48.252,131.837 48.281,131.777 48.221 C 131.596 48.040,130.361 48.726,130.226 49.083 C 130.149 49.286,130.078 48.811,130.044 47.875 C 129.993 46.473,129.958 46.333,129.660 46.333 C 129.345 46.333,129.333 46.469,129.333 50.167 M316.167 50.167 C 316.167 53.922,316.174 54.000,316.509 54.000 C 316.835 54.000,316.850 53.911,316.833 52.125 C 316.823 51.094,316.819 50.160,316.824 50.051 C 316.854 49.418,317.959 48.622,318.809 48.622 C 320.469 48.622,320.831 49.264,320.832 52.208 C 320.833 53.715,320.874 54.000,321.092 54.000 C 321.466 54.000,321.423 49.794,321.042 49.144 C 320.563 48.327,317.929 47.796,317.704 48.472 C 317.668 48.579,317.536 48.667,317.411 48.667 C 317.286 48.667,317.107 48.798,317.013 48.958 C 316.888 49.173,316.842 48.864,316.838 47.792 C 316.834 46.446,316.808 46.333,316.500 46.333 C 316.176 46.333,316.167 46.444,316.167 50.167 M113.875 46.608 C 113.347 46.827,113.770 47.000,114.833 47.000 L 116.000 47.000 116.000 50.500 C 116.000 53.889,116.011 54.000,116.333 54.000 C 116.656 54.000,116.667 53.889,116.667 50.500 L 116.667 47.000 117.764 47.000 C 118.567 47.000,118.843 46.944,118.792 46.792 C 118.722 46.580,114.337 46.417,113.875 46.608 M204.667 47.500 C 204.667 48.100,204.625 48.167,204.250 48.167 C 203.991 48.167,203.833 48.261,203.833 48.417 C 203.833 48.572,203.991 48.667,204.250 48.667 L 204.667 48.667 204.667 50.898 C 204.667 53.621,204.756 53.798,206.208 53.948 C 207.026 54.032,207.167 54.006,207.167 53.773 C 207.167 53.568,207.009 53.500,206.531 53.500 C 205.341 53.500,205.167 53.148,205.167 50.744 L 205.167 48.667 206.167 48.667 C 206.717 48.667,207.167 48.600,207.167 48.518 C 207.167 48.291,206.718 48.167,205.903 48.167 L 205.167 48.167 205.167 47.500 C 205.167 47.019,205.097 46.833,204.917 46.833 C 204.736 46.833,204.667 47.019,204.667 47.500 M147.224 48.489 C 146.935 48.665,146.654 48.765,146.599 48.710 C 146.545 48.656,146.500 48.684,146.500 48.774 C 146.500 48.864,146.369 49.085,146.208 49.267 C 145.465 50.106,145.522 52.416,146.303 53.163 C 147.653 54.453,150.628 54.141,151.146 52.655 C 151.441 51.809,151.008 51.761,150.500 52.583 C 150.302 52.904,150.039 53.167,149.917 53.167 C 149.795 53.167,149.668 53.247,149.635 53.344 C 149.551 53.596,148.329 53.725,147.833 53.534 C 147.604 53.446,147.362 53.363,147.295 53.350 C 147.035 53.302,146.402 52.574,146.461 52.392 C 146.495 52.287,146.443 52.151,146.345 52.090 C 146.247 52.030,146.167 51.797,146.167 51.573 L 146.167 51.167 148.750 51.167 L 151.333 51.167 151.326 50.625 C 151.319 50.056,150.649 48.710,150.420 48.806 C 150.347 48.837,150.241 48.798,150.185 48.719 C 149.767 48.133,148.028 47.998,147.224 48.489 M187.833 50.190 C 187.833 52.807,188.123 53.515,189.360 53.926 C 190.112 54.175,190.947 54.148,191.417 53.858 C 191.508 53.801,191.621 53.747,191.667 53.738 C 192.004 53.670,192.316 53.440,192.239 53.316 C 192.188 53.234,192.226 53.167,192.323 53.167 C 192.421 53.167,192.500 53.354,192.500 53.583 C 192.500 53.889,192.589 54.000,192.833 54.000 C 193.154 54.000,193.167 53.889,193.167 51.083 C 193.167 48.298,193.097 47.898,192.696 48.381 C 192.490 48.629,192.398 52.366,192.590 52.677 C 192.670 52.807,192.650 52.843,192.537 52.773 C 192.438 52.712,192.309 52.739,192.250 52.833 C 191.850 53.480,190.172 53.849,189.600 53.417 C 189.427 53.285,189.232 53.210,189.168 53.249 C 188.766 53.497,188.333 51.825,188.333 50.023 C 188.333 48.484,188.291 48.167,188.083 48.167 C 187.875 48.167,187.833 48.503,187.833 50.190 M217.778 48.278 C 217.502 48.554,217.663 52.415,217.975 53.003 C 218.464 53.923,220.052 54.397,221.083 53.930 C 221.267 53.847,221.477 53.772,221.551 53.764 C 221.625 53.756,221.830 53.563,222.006 53.333 L 222.326 52.917 222.330 53.458 C 222.332 53.831,222.413 54.000,222.587 54.000 C 222.928 54.000,222.883 48.322,222.542 48.208 C 222.383 48.156,222.333 48.584,222.333 49.991 C 222.333 52.603,221.739 53.664,220.275 53.666 C 218.691 53.668,218.167 52.795,218.167 50.153 C 218.167 48.336,218.090 47.966,217.778 48.278 M234.266 48.289 C 233.944 48.612,234.171 54.000,234.507 54.000 C 234.834 54.000,234.847 53.912,234.823 51.905 C 234.794 49.490,234.926 49.206,236.266 48.811 C 237.214 48.531,237.245 48.174,236.315 48.240 C 235.938 48.267,235.582 48.361,235.523 48.448 C 235.332 48.733,234.833 48.840,234.833 48.596 C 234.833 48.349,234.427 48.129,234.266 48.289 M248.917 48.486 C 246.839 49.465,246.891 53.262,248.989 53.807 C 249.570 53.958,251.199 54.022,251.465 53.905 C 251.622 53.835,251.789 53.772,251.837 53.764 C 252.050 53.729,252.756 53.052,252.812 52.829 C 252.846 52.694,252.911 52.452,252.956 52.292 C 253.057 51.934,252.783 51.909,252.500 52.250 C 252.386 52.387,252.348 52.500,252.417 52.500 C 252.705 52.500,252.031 53.076,251.417 53.356 C 250.087 53.961,248.715 53.508,248.158 52.282 C 247.633 51.125,247.545 51.167,250.519 51.167 L 253.204 51.167 253.091 50.566 C 252.711 48.538,250.813 47.592,248.917 48.486 M276.833 51.083 C 276.833 53.565,276.871 54.000,277.083 54.000 C 277.296 54.000,277.333 53.565,277.333 51.083 C 277.333 48.602,277.296 48.167,277.083 48.167 C 276.871 48.167,276.833 48.602,276.833 51.083 M289.354 48.284 C 288.045 48.804,288.203 50.940,289.562 51.089 C 291.604 51.313,292.641 52.472,291.561 53.321 C 290.747 53.962,289.166 53.516,288.931 52.580 C 288.874 52.353,288.708 52.167,288.562 52.167 C 288.238 52.167,288.365 52.836,288.800 53.428 C 289.112 53.852,290.460 54.125,291.292 53.933 C 291.544 53.875,291.862 53.803,292.000 53.773 C 292.137 53.743,292.250 53.638,292.250 53.540 C 292.250 53.441,292.306 53.305,292.375 53.236 C 292.545 53.066,292.533 52.274,292.353 51.803 C 292.216 51.443,291.172 51.008,289.820 50.747 C 289.211 50.630,288.980 50.318,289.033 49.689 C 289.145 48.371,290.860 48.171,291.653 49.384 C 291.875 49.723,292.156 50.000,292.278 50.000 C 292.517 50.000,292.579 49.635,292.375 49.431 C 292.306 49.362,292.250 49.220,292.250 49.116 C 292.250 48.555,290.175 47.958,289.354 48.284 M334.167 48.382 C 333.938 48.488,333.704 48.639,333.648 48.718 C 333.592 48.797,333.488 48.837,333.416 48.806 C 333.345 48.775,333.203 48.897,333.101 49.076 C 333.000 49.256,332.823 49.505,332.708 49.630 C 332.482 49.877,332.475 49.915,332.423 51.208 C 332.374 52.446,333.057 53.572,333.999 53.804 C 336.033 54.306,338.000 53.608,338.000 52.385 C 338.000 51.851,337.828 51.902,337.271 52.601 C 336.487 53.582,335.151 53.954,334.370 53.407 C 334.167 53.265,334.000 53.208,334.000 53.281 C 334.000 53.507,333.258 52.608,333.040 52.117 C 332.616 51.161,332.602 51.167,335.420 51.167 L 338.006 51.167 337.977 50.333 C 337.960 49.875,337.896 49.500,337.834 49.500 C 337.771 49.500,337.635 49.312,337.530 49.082 C 337.425 48.853,337.282 48.680,337.211 48.700 C 337.141 48.719,336.843 48.607,336.550 48.451 C 335.945 48.129,334.787 48.095,334.167 48.382 M349.000 51.098 C 349.000 53.889,349.013 54.000,349.333 54.000 C 349.649 54.000,349.667 53.889,349.667 51.934 L 349.667 49.868 350.246 49.359 C 350.565 49.079,351.090 48.800,351.413 48.740 C 351.745 48.677,352.000 48.530,352.000 48.401 C 352.000 48.124,350.626 48.205,350.532 48.488 C 350.499 48.586,350.364 48.667,350.231 48.667 C 350.098 48.667,349.938 48.798,349.874 48.958 C 349.783 49.190,349.741 49.150,349.671 48.766 C 349.618 48.475,349.467 48.264,349.292 48.239 C 349.023 48.200,349.000 48.429,349.000 51.098 M363.929 48.506 C 362.498 49.220,361.883 50.979,362.588 52.342 C 362.727 52.612,362.792 52.833,362.730 52.833 C 362.509 52.833,363.555 53.697,363.899 53.799 C 365.548 54.286,367.228 53.842,367.781 52.773 C 368.176 52.009,367.770 51.807,367.331 52.549 C 366.460 54.026,363.439 53.874,363.100 52.336 C 363.050 52.105,362.960 51.748,362.901 51.542 L 362.794 51.167 365.499 51.167 L 368.204 51.167 368.092 50.572 C 367.723 48.605,365.722 47.612,363.929 48.506 M149.189 48.693 C 149.543 48.799,149.833 48.949,149.833 49.026 C 149.833 49.104,149.927 49.169,150.042 49.171 C 150.289 49.176,150.833 50.209,150.833 50.674 C 150.833 50.982,150.706 51.000,148.500 51.000 C 145.954 51.000,145.969 51.007,146.380 50.030 C 146.685 49.305,147.466 48.741,148.481 48.514 C 148.516 48.506,148.835 48.587,149.189 48.693 M251.201 48.827 C 251.918 49.123,252.318 49.583,252.475 50.292 L 252.631 51.000 250.229 51.000 L 247.827 51.000 247.937 50.542 C 248.115 49.798,248.491 49.167,248.754 49.167 C 248.889 49.167,249.000 49.094,249.000 49.005 C 249.000 48.581,250.343 48.473,251.201 48.827 M336.583 49.006 C 337.187 49.373,337.624 50.113,337.539 50.625 C 337.453 51.144,332.832 51.226,332.834 50.708 C 332.840 49.149,335.118 48.116,336.583 49.006 M365.875 48.675 C 366.219 48.771,366.500 48.915,366.500 48.997 C 366.500 49.078,366.639 49.188,366.808 49.242 C 367.167 49.356,367.500 50.005,367.500 50.591 L 367.500 51.000 365.167 51.000 C 363.754 51.000,362.833 50.936,362.833 50.837 C 362.833 49.977,363.691 48.951,364.652 48.659 C 365.238 48.482,365.175 48.481,365.875 48.675 " stroke="none" fill="#dbdbdb" fill-rule="evenodd"></path><path id="path1" d="M204.833 15.083 C 204.833 17.268,204.876 19.013,204.929 18.960 C 205.041 18.848,205.024 11.302,204.911 11.189 C 204.868 11.146,204.833 12.899,204.833 15.083 M15.667 15.138 C 15.289 15.506,15.284 15.527,15.616 15.355 C 15.817 15.250,16.031 15.085,16.091 14.988 C 16.296 14.656,16.084 14.731,15.667 15.138 M125.628 16.287 C 125.928 16.325,126.378 16.324,126.628 16.286 C 126.878 16.248,126.633 16.217,126.083 16.218 C 125.533 16.219,125.328 16.250,125.628 16.287 M149.042 16.286 C 149.294 16.324,149.706 16.324,149.958 16.286 C 150.210 16.248,150.004 16.217,149.500 16.217 C 148.996 16.217,148.790 16.248,149.042 16.286 M179.875 16.282 C 180.035 16.323,180.298 16.323,180.458 16.282 C 180.619 16.240,180.487 16.205,180.167 16.205 C 179.846 16.205,179.715 16.240,179.875 16.282 M235.208 16.282 C 235.369 16.323,235.631 16.323,235.792 16.282 C 235.952 16.240,235.821 16.205,235.500 16.205 C 235.179 16.205,235.048 16.240,235.208 16.282 M301.961 16.287 C 302.261 16.325,302.711 16.324,302.961 16.286 C 303.212 16.248,302.967 16.217,302.417 16.218 C 301.867 16.219,301.662 16.250,301.961 16.287 M370.375 16.286 C 370.627 16.324,371.040 16.324,371.292 16.286 C 371.544 16.248,371.337 16.217,370.833 16.217 C 370.329 16.217,370.123 16.248,370.375 16.286 M121.555 17.583 C 121.555 18.225,121.586 18.467,121.622 18.121 C 121.658 17.775,121.657 17.250,121.620 16.955 C 121.583 16.659,121.554 16.942,121.555 17.583 M382.244 24.917 C 382.244 29.592,382.265 31.528,382.292 29.220 C 382.318 26.912,382.318 23.087,382.292 20.720 C 382.265 18.353,382.244 20.242,382.244 24.917 M214.000 17.653 C 214.000 17.824,214.649 18.406,214.739 18.317 C 214.778 18.278,214.627 18.084,214.405 17.886 C 214.182 17.687,214.000 17.583,214.000 17.653 M274.042 17.621 C 274.385 17.657,274.948 17.657,275.292 17.621 C 275.635 17.585,275.354 17.556,274.667 17.556 C 273.979 17.556,273.698 17.585,274.042 17.621 M366.206 17.944 C 366.091 17.991,365.918 18.191,365.822 18.390 C 365.673 18.698,365.681 18.714,365.873 18.500 C 365.997 18.362,366.204 18.156,366.333 18.042 C 366.578 17.823,366.554 17.804,366.206 17.944 M342.955 22.120 C 343.250 22.157,343.775 22.158,344.121 22.122 C 344.467 22.086,344.225 22.055,343.583 22.055 C 342.942 22.054,342.659 22.083,342.955 22.120 M352.047 22.123 C 352.485 22.157,353.160 22.157,353.547 22.122 C 353.934 22.087,353.575 22.059,352.750 22.059 C 351.925 22.060,351.609 22.088,352.047 22.123 M363.720 24.833 C 363.720 25.429,363.750 25.673,363.787 25.375 C 363.824 25.077,363.824 24.590,363.787 24.292 C 363.750 23.994,363.720 24.238,363.720 24.833 M204.907 28.667 C 204.907 31.279,204.930 32.348,204.958 31.042 C 204.986 29.735,204.986 27.598,204.958 26.292 C 204.930 24.985,204.907 26.054,204.907 28.667 M209.573 28.667 C 209.573 31.279,209.596 32.348,209.625 31.042 C 209.653 29.735,209.653 27.598,209.625 26.292 C 209.596 24.985,209.573 26.054,209.573 28.667 M177.714 24.917 C 177.716 25.375,177.748 25.543,177.786 25.289 C 177.825 25.036,177.824 24.661,177.784 24.456 C 177.744 24.251,177.713 24.458,177.714 24.917 M293.381 24.917 C 293.382 25.375,293.415 25.543,293.453 25.289 C 293.491 25.036,293.490 24.661,293.451 24.456 C 293.411 24.251,293.380 24.458,293.381 24.917 M126.375 24.917 C 126.377 25.283,126.411 25.414,126.451 25.206 C 126.491 24.999,126.490 24.699,126.448 24.540 C 126.406 24.380,126.374 24.550,126.375 24.917 M91.836 24.875 C 91.834 25.138,92.023 25.163,93.792 25.131 L 95.750 25.096 93.923 25.042 C 92.724 25.007,92.051 24.918,91.967 24.786 C 91.878 24.646,91.838 24.674,91.836 24.875 M170.872 25.667 C 170.872 25.988,170.906 26.119,170.948 25.958 C 170.990 25.798,170.990 25.535,170.948 25.375 C 170.906 25.215,170.872 25.346,170.872 25.667 M133.205 25.833 C 133.205 26.154,133.240 26.285,133.282 26.125 C 133.323 25.965,133.323 25.702,133.282 25.542 C 133.240 25.381,133.205 25.512,133.205 25.833 M352.167 27.626 C 352.167 27.696,352.523 27.729,352.958 27.701 C 354.225 27.620,354.334 27.540,353.208 27.519 C 352.635 27.509,352.167 27.557,352.167 27.626 M0.039 30.833 C 0.039 31.154,0.073 31.285,0.115 31.125 C 0.157 30.965,0.157 30.702,0.115 30.542 C 0.073 30.381,0.039 30.512,0.039 30.833 M185.658 31.292 L 185.083 31.917 185.708 31.342 C 186.290 30.808,186.410 30.667,186.283 30.667 C 186.255 30.667,185.974 30.948,185.658 31.292 M121.574 36.333 C 121.574 39.221,121.597 40.402,121.625 38.958 C 121.652 37.515,121.652 35.152,121.625 33.708 C 121.597 32.265,121.574 33.446,121.574 36.333 M130.750 31.667 C 130.584 31.850,130.532 32.000,130.635 32.000 C 130.738 32.000,130.902 31.850,131.000 31.667 C 131.098 31.483,131.150 31.333,131.115 31.333 C 131.080 31.333,130.916 31.483,130.750 31.667 M144.500 31.450 C 144.500 31.643,144.973 32.087,145.066 31.982 C 145.098 31.946,144.983 31.772,144.812 31.596 C 144.640 31.419,144.500 31.354,144.500 31.450 M8.556 32.667 C 8.556 33.354,8.585 33.635,8.621 33.292 C 8.657 32.948,8.657 32.385,8.621 32.042 C 8.585 31.698,8.556 31.979,8.556 32.667 M125.875 33.615 C 126.035 33.657,126.298 33.657,126.458 33.615 C 126.619 33.573,126.487 33.539,126.167 33.539 C 125.846 33.539,125.715 33.573,125.875 33.615 M149.208 33.615 C 149.369 33.657,149.631 33.657,149.792 33.615 C 149.952 33.573,149.821 33.539,149.500 33.539 C 149.179 33.539,149.048 33.573,149.208 33.615 M179.125 33.621 C 179.423 33.658,179.910 33.658,180.208 33.621 C 180.506 33.584,180.262 33.553,179.667 33.553 C 179.071 33.553,178.827 33.584,179.125 33.621 M234.458 33.621 C 234.756 33.658,235.244 33.658,235.542 33.621 C 235.840 33.584,235.596 33.553,235.000 33.553 C 234.404 33.553,234.160 33.584,234.458 33.621 M301.961 33.621 C 302.261 33.658,302.711 33.657,302.961 33.619 C 303.212 33.581,302.967 33.551,302.417 33.552 C 301.867 33.553,301.662 33.584,301.961 33.621 M370.627 33.618 C 370.834 33.658,371.134 33.656,371.294 33.615 C 371.453 33.573,371.283 33.540,370.917 33.542 C 370.550 33.544,370.420 33.578,370.627 33.618 M48.042 43.948 C 48.202 43.990,48.465 43.990,48.625 43.948 C 48.785 43.906,48.654 43.872,48.333 43.872 C 48.012 43.872,47.881 43.906,48.042 43.948 M204.542 47.583 C 204.544 47.950,204.578 48.080,204.618 47.873 C 204.658 47.666,204.656 47.366,204.615 47.206 C 204.573 47.047,204.540 47.217,204.542 47.583 M236.575 48.153 C 236.638 48.255,236.754 48.299,236.832 48.251 C 236.911 48.202,237.014 48.295,237.061 48.456 C 237.130 48.690,237.141 48.682,237.114 48.419 C 237.095 48.236,236.940 48.060,236.770 48.028 C 236.576 47.990,236.503 48.037,236.575 48.153 M318.557 48.112 C 318.716 48.272,319.500 48.287,319.500 48.131 C 319.500 48.059,319.262 48.000,318.972 48.000 C 318.682 48.000,318.495 48.051,318.557 48.112 M188.397 50.083 C 188.397 51.183,188.424 51.612,188.457 51.035 C 188.490 50.459,188.489 49.559,188.456 49.035 C 188.423 48.512,188.397 48.983,188.397 50.083 M203.720 48.417 C 203.740 48.620,203.897 48.771,204.121 48.803 C 204.472 48.853,204.492 48.943,204.542 50.719 L 204.595 52.583 204.631 50.625 L 204.667 48.667 204.262 48.667 C 204.021 48.667,203.823 48.549,203.772 48.375 C 203.705 48.148,203.693 48.157,203.720 48.417 M217.528 50.125 C 217.557 52.154,217.627 51.922,217.705 49.541 C 217.730 48.785,217.694 48.166,217.625 48.166 C 217.556 48.166,217.513 49.048,217.528 50.125 M222.794 50.125 C 222.874 53.750,222.936 54.102,222.968 51.125 C 222.986 49.498,222.944 48.167,222.875 48.166 C 222.806 48.166,222.770 49.047,222.794 50.125 M276.736 51.083 C 276.736 52.733,276.761 53.386,276.791 52.533 C 276.821 51.681,276.821 50.331,276.791 49.533 C 276.760 48.736,276.735 49.433,276.736 51.083 M174.375 48.782 C 174.535 48.823,174.798 48.823,174.958 48.782 C 175.119 48.740,174.987 48.705,174.667 48.705 C 174.346 48.705,174.215 48.740,174.375 48.782 M175.740 48.882 C 175.695 49.001,175.680 50.220,175.708 51.591 L 175.760 54.083 175.796 51.467 L 175.833 48.851 176.708 48.790 L 177.583 48.728 176.703 48.697 C 176.113 48.677,175.796 48.738,175.740 48.882 M205.625 48.787 C 205.923 48.824,206.410 48.824,206.708 48.787 C 207.006 48.750,206.762 48.720,206.167 48.720 C 205.571 48.720,205.327 48.750,205.625 48.787 M51.099 50.339 C 50.182 51.266,50.174 51.443,51.084 50.644 C 51.578 50.210,52.140 49.484,51.964 49.506 C 51.938 49.509,51.549 49.884,51.099 50.339 M15.333 49.765 C 15.333 49.902,16.483 51.000,16.627 51.000 C 16.683 51.000,16.554 50.831,16.339 50.625 C 16.125 50.419,15.810 50.116,15.641 49.952 C 15.472 49.788,15.333 49.704,15.333 49.765 M151.353 50.704 L 151.333 51.158 148.708 51.209 L 146.083 51.259 148.714 51.296 C 151.494 51.335,151.643 51.295,151.450 50.551 C 151.399 50.352,151.365 50.404,151.353 50.704 M338.019 50.704 L 338.000 51.158 335.375 51.209 L 332.750 51.259 335.380 51.296 C 338.161 51.335,338.309 51.295,338.117 50.551 C 338.065 50.352,338.032 50.404,338.019 50.704 M321.396 52.250 C 321.396 53.258,321.424 53.649,321.457 53.119 C 321.490 52.588,321.490 51.763,321.456 51.286 C 321.422 50.808,321.395 51.242,321.396 52.250 M362.836 50.708 C 362.834 50.974,363.043 50.997,365.208 50.964 L 367.583 50.927 365.340 50.875 C 363.807 50.840,363.056 50.759,362.968 50.620 C 362.878 50.479,362.838 50.506,362.836 50.708 M134.728 52.333 C 134.728 53.296,134.756 53.690,134.790 53.208 C 134.823 52.727,134.823 51.940,134.790 51.458 C 134.756 50.977,134.728 51.371,134.728 52.333 M145.542 51.250 C 145.544 51.617,145.578 51.747,145.618 51.540 C 145.658 51.332,145.656 51.032,145.615 50.873 C 145.573 50.714,145.540 50.883,145.542 51.250 M247.833 50.875 C 247.833 50.944,248.940 50.986,250.292 50.969 C 252.765 50.938,252.469 50.876,249.458 50.794 C 248.564 50.770,247.833 50.806,247.833 50.875 M147.292 50.957 C 147.956 50.989,149.044 50.989,149.708 50.957 C 150.373 50.925,149.829 50.900,148.500 50.900 C 147.171 50.900,146.627 50.925,147.292 50.957 M333.958 50.957 C 334.623 50.989,335.710 50.989,336.375 50.957 C 337.040 50.925,336.496 50.900,335.167 50.900 C 333.837 50.900,333.294 50.925,333.958 50.957 M247.836 51.458 C 247.838 51.661,247.878 51.688,247.968 51.546 C 248.058 51.405,248.857 51.327,250.590 51.292 L 253.083 51.240 250.458 51.204 C 248.055 51.170,247.834 51.191,247.836 51.458 M362.836 51.458 C 362.838 51.661,362.878 51.688,362.968 51.546 C 363.058 51.405,363.857 51.327,365.590 51.292 L 368.083 51.240 365.458 51.204 C 363.055 51.170,362.834 51.191,362.836 51.458 M292.487 52.458 C 292.566 53.034,292.578 53.045,292.633 52.605 C 292.666 52.341,292.627 52.060,292.547 51.980 C 292.463 51.896,292.437 52.100,292.487 52.458 M148.375 54.115 C 148.535 54.157,148.798 54.157,148.958 54.115 C 149.119 54.073,148.987 54.039,148.667 54.039 C 148.346 54.039,148.215 54.073,148.375 54.115 M250.127 54.118 C 250.334 54.158,250.634 54.156,250.794 54.115 C 250.953 54.073,250.783 54.040,250.417 54.042 C 250.050 54.044,249.920 54.078,250.127 54.118 M290.375 54.115 C 290.535 54.157,290.798 54.157,290.958 54.115 C 291.119 54.073,290.987 54.039,290.667 54.039 C 290.346 54.039,290.215 54.073,290.375 54.115 M335.127 54.118 C 335.334 54.158,335.634 54.156,335.794 54.115 C 335.953 54.073,335.783 54.040,335.417 54.042 C 335.050 54.044,334.920 54.078,335.127 54.118 M365.042 54.115 C 365.202 54.157,365.465 54.157,365.625 54.115 C 365.785 54.073,365.654 54.039,365.333 54.039 C 365.012 54.039,364.881 54.073,365.042 54.115 " stroke="none" fill="#6d6d6d" fill-rule="evenodd"></path></g></svg>